<svg id="e42ujfmk1xk61" xmlns="http://www.w3.org/2000/svg" xmlns:xlink="http://www.w3.org/1999/xlink" viewBox="0 0 1980 1280" shape-rendering="geometricPrecision" text-rendering="geometricPrecision" width="1980" height="1280"><style><![CDATA[#e42ujfmk1xk620_ts {animation: e42ujfmk1xk620_ts__ts 1500ms linear infinite normal forwards}@keyframes e42ujfmk1xk620_ts__ts { 0% {transform: translate(-733.211883px,-540.076527px) scale(2.060350,2.060350)} 33.333333% {transform: translate(-733.211883px,-540.076527px) scale(2.160000,2.100000)} 66.666667% {transform: translate(-733.211883px,-540.076527px) scale(2.080000,2.080175)} 100% {transform: translate(-733.211883px,-540.076527px) scale(2.060000,2.060350)} }#e42ujfmk1xk621_to {animation: e42ujfmk1xk621_to__to 1500ms linear infinite normal forwards}@keyframes e42ujfmk1xk621_to__to { 0% {transform: translate(-2049.359525px,-802.083886px)} 33.333333% {transform: translate(-2083.718620px,-784.489865px)} 66.666667% {transform: translate(-2069.613168px,-771.338914px)} 100% {transform: translate(-2041.640000px,-797.870000px)} }#e42ujfmk1xk622_to {animation: e42ujfmk1xk622_to__to 1500ms linear infinite normal forwards}@keyframes e42ujfmk1xk622_to__to { 0% {transform: translate(-1112.055163px,-730.923370px)} 40% {transform: translate(-1101.584505px,-702.547447px)} 73.333333% {transform: translate(-1146.414258px,-713.329349px)} 100% {transform: translate(-1104.335638px,-726.709484px)} }#e42ujfmk1xk623_to {animation: e42ujfmk1xk623_to__to 1500ms linear infinite normal forwards}@keyframes e42ujfmk1xk623_to__to { 0% {transform: translate(-45.768000px,-462.763000px)} 33.333333% {transform: translate(12.646530px,-443.870713px)} 66.666667% {transform: translate(-8.193824px,-474.438462px)} 100% {transform: translate(-50.287943px,-460.284201px)} }#e42ujfmk1xk624_to {animation: e42ujfmk1xk624_to__to 1500ms linear infinite normal forwards}@keyframes e42ujfmk1xk624_to__to { 0% {transform: translate(-829.074775px,-216.735576px)} 33.333333% {transform: translate(-779.159610px,-216.735576px)} 66.666667% {transform: translate(-747.187417px,-223.773813px)} 100% {transform: translate(-840.047000px,-203.714000px)} }#e42ujfmk1xk625_to {animation: e42ujfmk1xk625_to__to 1500ms linear infinite normal forwards}@keyframes e42ujfmk1xk625_to__to { 0% {transform: translate(-605.082353px,-164.008384px)} 26.666667% {transform: translate(-635.535673px,-164.008384px)} 33.333333% {transform: translate(-626.025840px,-164.008384px)} 66.666667% {transform: translate(-591.849927px,-157.384297px)} 100% {transform: translate(-603.205635px,-157.384297px)} }#e42ujfmk1xk626_to {animation: e42ujfmk1xk626_to__to 1500ms linear infinite normal forwards}@keyframes e42ujfmk1xk626_to__to { 0% {transform: translate(-699.009095px,-38.767014px)} 26.666667% {transform: translate(-656.811013px,-14.840127px)} 33.333333% {transform: translate(-656.811013px,-57.533209px)} 66.666667% {transform: translate(-722.897331px,-14.840127px)} 100% {transform: translate(-697.633346px,-43.112610px)} }#e42ujfmk1xk628_to {animation: e42ujfmk1xk628_to__to 1500ms linear infinite normal forwards}@keyframes e42ujfmk1xk628_to__to { 0% {transform: translate(-303.688775px,-299.462576px)} 33.333333% {transform: translate(-186.823963px,-313.524373px)} 66.666667% {transform: translate(-160.366123px,-313.524373px)} 100% {transform: translate(-314.661000px,-286.441000px)} }#e42ujfmk1xk629_ts {animation: e42ujfmk1xk629_ts__ts 1500ms linear infinite normal forwards}@keyframes e42ujfmk1xk629_ts__ts { 0% {transform: translate(-653.545649px,-769.413092px) scale(1.960000,1.980000)} 26.666667% {transform: translate(-653.545649px,-769.413092px) scale(2,1.950000)} 66.666667% {transform: translate(-653.545649px,-769.413092px) scale(1.880000,2.010000)} 100% {transform: translate(-653.545649px,-769.413092px) scale(1.960600,1.960600)} }#e42ujfmk1xk630_to {animation: e42ujfmk1xk630_to__to 1500ms linear infinite normal forwards}@keyframes e42ujfmk1xk630_to__to { 0% {transform: translate(-130.568000px,-235.170000px)} 33.333333% {transform: translate(-160.697842px,-236.336341px)} 66.666667% {transform: translate(-109.321008px,-225.554438px)} 100% {transform: translate(-135.009425px,-232.431466px)} }#e42ujfmk1xk631_to {animation: e42ujfmk1xk631_to__to 1500ms linear infinite normal forwards}@keyframes e42ujfmk1xk631_to__to { 0% {transform: translate(-368.934910px,-504.189008px)} 33.333333% {transform: translate(-416.914520px,-510.075577px)} 66.666667% {transform: translate(-387.863927px,-479.363297px)} 100% {transform: translate(-399.219635px,-479.363297px)} }#e42ujfmk1xk632_to {animation: e42ujfmk1xk632_to__to 1500ms linear infinite normal forwards}@keyframes e42ujfmk1xk632_to__to { 0% {transform: translate(1268.698787px,1100.923737px)} 26.666667% {transform: translate(1333.342607px,1116.686423px)} 60% {transform: translate(1318.613952px,1100.923737px)} 100% {transform: translate(1257.726563px,1113.945313px)} }]]></style><g id="e42ujfmk1xk62"><rect id="e42ujfmk1xk63" width="1982" height="1282" rx="0" ry="0" transform="matrix(1 0 0 1 0 -1)" fill="rgb(255,255,255)" stroke="none" stroke-width="1"/><g id="e42ujfmk1xk64" display="none"><rect id="e42ujfmk1xk65" width="1980" height="1280" rx="0" ry="0" fill="rgb(0,0,0)" stroke="none" stroke-width="0"/></g></g><g id="e42ujfmk1xk66"><path id="e42ujfmk1xk67" d="M635.467000,488.111340L635.467000,488.111340C635.467000,479.259360,647.226680,472.083410,661.732990,472.083410L673.672080,472.083410L673.672080,472.083410L730.979700,472.083410L838.431460,472.083410C845.397650,472.083410,852.078500,473.772060,857.004340,476.777880C861.930150,479.783700,864.697460,483.860470,864.697460,488.111340L864.697460,528.181170L864.697460,528.181170L864.697460,552.223060L864.697460,552.223060C864.697460,561.075050,852.937780,568.250990,838.431470,568.250990L730.979710,568.250990L656.114370,609.006300L673.672080,568.250990L661.732990,568.250990C647.226690,568.250990,635.467000,561.075050,635.467000,552.223060L635.467000,552.223060L635.467000,528.181170L635.467000,528.181170L635.466990,488.111340Z" fill="rgb(255,255,255)" stroke="rgb(0,0,0)" stroke-width="1.500000"/><path id="e42ujfmk1xk68" d="M1793.751330,565.981780L1793.751330,565.981780C1793.751330,551.758930,1778.282210,540.229030,1759.200080,540.229030L1743.494960,540.229030L1743.494960,540.229030L1668.110410,540.229030L1526.764410,540.229030C1517.600830,540.229030,1508.812590,542.942250,1502.332960,547.771830C1495.853370,552.601410,1492.213150,559.151730,1492.213150,565.981780L1492.213150,630.363660L1492.213150,630.363660L1492.213150,668.992780L1492.213150,668.992780C1492.213150,683.215640,1507.682260,694.745530,1526.764410,694.745530L1668.110410,694.745530L1766.591030,760.228790L1743.494970,694.745530L1759.200090,694.745530C1778.282210,694.745530,1793.751340,683.215640,1793.751340,668.992780L1793.751340,668.992780L1793.751340,630.363660L1793.751340,630.363660L1793.751350,565.981780Z" fill="rgb(255,255,255)" stroke="rgb(0,0,0)" stroke-width="1.500000"/><path id="e42ujfmk1xk69" d="M129.540390,736.911140C183.494610,736.911140,227.232560,769.974300,227.232560,810.758500C227.232560,824.695640,222.061820,837.715610,213.164410,848.833210L227.232560,879.919290L188.065180,869.783520C171.743680,879.047120,151.521180,884.603330,129.540380,884.603330C75.586100,884.603330,31.848180,851.540130,31.848180,810.758500C31.848180,769.974310,75.586100,736.911140,129.540380,736.911140L129.540380,736.911150Z" fill="rgb(255,255,255)" stroke="rgb(0,0,0)" stroke-width="1.500000"/><path id="e42ujfmk1xk610" d="M1141.546820,620.172570C1195.925880,620.172570,1240.008240,653.580130,1240.008240,694.789150C1240.008240,708.871470,1234.796790,722.027060,1225.829320,733.260460L1240.008240,764.670340L1200.532450,754.428990C1184.082430,763.789090,1163.700700,769.403170,1141.546820,769.403170C1087.167700,769.403170,1043.085370,735.995580,1043.085370,694.789150C1043.085370,653.580140,1087.167690,620.172570,1141.546820,620.172570L1141.546820,620.172580Z" fill="rgb(255,255,255)" stroke="rgb(0,0,0)" stroke-width="1.500000"/><path id="e42ujfmk1xk611" d="M472.005580,673.531440L448.450800,674.493700L442.148890,697.938740L421.310610,692.270600L391.090140,710.260780L379.584330,699.761840L282.674410,744.659960L336.519740,694.589000L291.794130,688.079520L305.789540,678.394420L275.082690,660.618600L297.150370,656.319770L290.211480,632.921320L313.345080,635.373600L332.377200,613.781350L349.231980,622.206160L388.192540,609.275500L393.417220,620.998020L439.936530,620.834340L431.872310,632.132760L471.180800,644.788030L452.388030,652.075170L472.005560,673.531430Z" fill="rgb(255,255,255)" stroke="rgb(0,0,0)" stroke-width="1.500000"/><path id="e42ujfmk1xk612" d="M812.689880,179.417280L776.621630,180.652910L766.971820,210.758480L735.063200,203.480070L688.788100,226.581100L671.169830,213.099510L522.776510,270.752780L605.227180,206.457110L536.741090,198.098350L558.171570,185.661810L511.151700,162.836040L544.942840,157.315950L534.317670,127.270210L569.741000,130.419160L598.883940,102.692750L624.692830,113.510970L684.351190,96.906830L692.351480,111.959610L763.584180,111.749430L751.235840,126.257630L811.426970,142.508150L782.650530,151.865500L812.689880,179.417290Z" fill="rgb(255,255,255)" stroke="rgb(0,0,0)" stroke-width="1.500000"/><path id="e42ujfmk1xk613" d="M1649.510300,132.846730L1684.219040,134.076290L1693.505120,164.034160L1724.211020,156.791460L1768.741880,179.779150L1785.696070,166.363700L1928.496030,223.734130L1849.153160,159.753890L1915.057820,151.436140L1894.435120,139.060610L1939.682680,116.346820L1907.165220,110.853810L1917.389900,80.955480L1883.301780,84.088980L1855.257320,56.498590L1830.421240,67.263740L1773.011570,50.741060L1765.312830,65.719990L1696.765090,65.510840L1708.647990,79.947860L1650.725630,96.118650L1678.417400,105.430100L1649.510320,132.846730Z" transform="matrix(0.97733800000000 -0.21168300000000 0.21168300000000 0.97733800000000 11.61760000000000 382.99599999999998)" fill="rgb(255,255,255)" stroke="rgb(0,0,0)" stroke-width="1.500000"/><path id="e42ujfmk1xk614" d="M307.565870,234.523180C237.842050,234.523180,181.320590,277.846140,181.320590,331.295010C181.320590,349.556500,188.002670,366.622770,199.499770,381.192600L181.320590,421.935030L231.935700,408.658940C253.027590,420.788720,279.160720,428.073650,307.565860,428.073650C377.289850,428.073650,433.811190,384.743620,433.811190,331.295010C433.811190,277.846400,377.289850,234.523180,307.565860,234.523180ZM316.421960,386.016390L298.665060,386.016390L298.665060,368.605800L316.421960,368.605800L316.421960,386.016390ZM316.421960,350.013610L316.421960,355.772640L298.665060,355.772640L298.665060,348.684580C298.665060,327.293850,322.481470,323.904590,322.481470,308.715850C322.481470,301.782360,316.421950,296.466340,308.477500,296.466340C300.252620,296.466340,293.030500,302.661480,293.030500,302.661480L282.929140,289.821310C282.929140,289.821310,292.886000,279.196300,310.063330,279.196300C326.385720,279.196300,341.535140,289.525980,341.535140,306.929740C341.543790,331.287980,316.421940,334.086570,316.421940,350.013610L316.421950,350.013610Z" transform="matrix(0.99418600000000 0.10767400000000 -0.10767400000000 0.99418600000000 37.46050000000000 -31.19080000000000)" fill="rgb(255,255,255)" stroke="rgb(0,0,0)" stroke-width="1.500000"/><path id="e42ujfmk1xk615" d="M1719.841460,986.266960C1653.991760,986.266960,1600.610840,1024.146330,1600.610840,1070.879280C1600.610840,1086.846190,1606.921640,1101.768060,1617.779920,1114.507170L1600.610840,1150.130260L1648.413590,1138.522330C1668.333530,1149.127990,1693.014620,1155.497550,1719.841460,1155.497550C1785.691320,1155.497550,1839.072130,1117.612000,1839.072130,1070.879280C1839.072130,1024.146560,1785.691320,986.266960,1719.841460,986.266960ZM1728.205480,1118.724850L1711.435220,1118.724850L1711.435220,1103.501920L1728.205480,1103.501920L1728.205480,1118.724850ZM1728.205480,1087.245870L1728.205480,1092.281270L1711.435220,1092.281270L1711.435220,1086.083830C1711.435220,1067.380880,1733.928300,1064.417480,1733.928300,1051.137230C1733.928300,1045.074940,1728.205460,1040.426890,1720.702440,1040.426890C1712.934570,1040.426890,1706.113730,1045.843600,1706.113730,1045.843600L1696.573640,1034.616810C1696.573640,1034.616810,1705.977260,1025.326840,1722.200160,1025.326840C1737.615620,1025.326840,1751.923280,1034.358580,1751.923280,1049.575530C1751.931450,1070.873120,1728.205460,1073.320060,1728.205460,1087.245860L1728.205470,1087.245860Z" fill="rgb(255,255,255)" stroke="rgb(0,0,0)" stroke-width="1.500000"/><path id="e42ujfmk1xk616" d="M359.093140,1055.666650C289.420240,1055.666650,232.940190,1091.141140,232.940190,1134.900360C232.940190,1149.845340,239.617370,1163.823520,251.106930,1175.751840L232.940190,1209.102210L283.518170,1198.238960C304.596470,1208.169670,330.708600,1214.128070,359.093140,1214.128070C428.765820,1214.128070,485.247620,1178.653370,485.247620,1134.900360C485.247620,1091.147350,428.765820,1055.666650,359.093140,1055.666650ZM366.914800,1179.695660L349.172700,1179.695660L349.172700,1165.440900L366.914800,1165.440900L366.914800,1179.695660ZM366.050260,1154.940260L350.037270,1154.940260L348.452510,1093.944650L367.492350,1093.944650L366.050240,1154.940260L366.050250,1154.940260Z" fill="rgb(255,255,255)" stroke="rgb(0,0,0)" stroke-width="1.500000"/><path id="e42ujfmk1xk617" d="M704.942920,749.363050C613.610810,749.363050,539.558430,786.532420,539.558430,832.386350C539.558430,858.613930,563.867950,881.982460,601.716400,897.191750C596.331100,910.675900,585.583840,925.610650,564.812180,938.819830C564.812180,938.819830,613.297690,936.395800,647.543760,910.164650C649.515300,910.529900,651.556030,910.804810,653.546230,911.142070C651.675860,906.926600,650.574740,902.544370,650.574740,897.984780C650.574740,867.048030,696.176570,842.823800,754.418700,842.823800C796.251780,842.823800,831.451750,855.368870,848.021710,873.878820C862.127590,861.660520,870.327330,847.508570,870.327330,832.375810C870.327330,786.532420,796.274960,749.363050,704.942920,749.363050L704.942910,749.363050ZM846.174460,897.991850C846.174460,872.557120,805.101340,851.922260,754.404860,851.922260C703.736030,851.922260,662.639760,872.557120,662.639760,897.991850C662.639760,923.440220,703.736030,944.064800,754.404860,944.064800C765.626580,944.064800,776.314220,943.003950,786.250900,941.153810C805.248780,955.716120,832.151690,957.055180,832.151690,957.055180C820.630670,949.723430,814.678800,941.438730,811.684230,933.950640C832.672420,925.520090,846.174460,912.553990,846.174460,897.991850Z" fill="rgb(255,255,255)" stroke="rgb(0,0,0)" stroke-width="1.500000"/><path id="e42ujfmk1xk618" d="M1194.088590,235.117430C1117.199710,235.117430,1054.857940,268.432190,1054.857940,309.530890C1054.857940,333.038570,1075.323160,353.983690,1107.186280,367.615720C1102.652610,379.701520,1093.604910,393.087470,1076.118070,404.926800C1076.118070,404.926800,1116.936100,402.754150,1145.766510,379.243280C1147.426270,379.570650,1149.144280,379.817050,1150.819750,380.119340C1149.245160,376.341030,1148.318170,372.413260,1148.318170,368.326510C1148.318170,340.598020,1186.708550,318.885930,1235.740280,318.885930C1270.957890,318.885930,1300.591350,330.130030,1314.540950,346.720420C1326.416130,335.769210,1333.319170,323.084870,1333.319170,309.521430C1333.319170,268.432170,1270.977420,235.117410,1194.088590,235.117410L1194.088580,235.117410ZM1312.985830,368.332850C1312.985830,345.535800,1278.408000,327.040860,1235.728640,327.040860C1193.072560,327.040860,1158.475240,345.535810,1158.475240,368.332850C1158.475240,391.142130,1193.072560,409.627860,1235.728640,409.627860C1245.175760,409.627860,1254.173260,408.677020,1262.538560,407.018760C1278.532120,420.070910,1301.180610,421.271090,1301.180610,421.271090C1291.481520,414.699670,1286.470870,407.274120,1283.949870,400.562580C1301.619000,393.006310,1312.985820,381.384850,1312.985820,368.332850Z" fill="rgb(255,255,255)" stroke="rgb(0,0,0)" stroke-width="1.500000"/><path id="e42ujfmk1xk619" d="M1244.003750,991.093720C1153.946050,991.093720,1080.926970,1023.857820,1080.926970,1064.277200C1080.926970,1087.396320,1104.897290,1107.995240,1142.217620,1121.401950C1136.907460,1133.287980,1126.310160,1146.452680,1105.828340,1158.096320C1105.828340,1158.096320,1153.637310,1155.959580,1187.405520,1132.837320C1189.349550,1133.159280,1191.361810,1133.401610,1193.324230,1133.698900C1191.479960,1129.983040,1190.394210,1126.120190,1190.394210,1122.101000C1190.394210,1094.830840,1235.359730,1073.477630,1292.789170,1073.477630C1334.038530,1073.477630,1368.747330,1084.535870,1385.086090,1100.852050C1398.995150,1090.081850,1407.080470,1077.607170,1407.080470,1064.267930C1407.080470,1023.857840,1334.061400,991.093740,1244.003770,991.093740L1244.003760,991.093740ZM1383.264600,1122.107230C1383.264600,1099.686990,1342.764600,1081.497750,1292.775520,1081.497750C1242.813710,1081.497750,1202.290870,1099.686990,1202.290870,1122.107230C1202.290870,1144.539490,1242.813700,1162.719680,1292.775520,1162.719680C1303.840650,1162.719680,1314.379160,1161.784560,1324.177200,1160.153700C1342.909990,1172.990110,1369.437510,1174.170460,1369.437510,1174.170460C1358.077250,1167.707660,1352.208420,1160.404850,1349.255650,1153.804240C1369.950980,1146.372870,1383.264610,1134.943490,1383.264610,1122.107240Z" fill="rgb(255,255,255)" stroke="rgb(0,0,0)" stroke-width="1.500000"/><g id="e42ujfmk1xk620_ts" transform="translate(-733.211883,-540.076527) scale(2.060350,2.060350)"><text id="e42ujfmk1xk620" dx="0" dy="0" font-family="Helvetica, Arial, sans-serif" font-size="24" transform="translate(675.250000,519.921875)" fill="rgb(0,0,0)" stroke="rgb(0,0,0)" stroke-width="0"><![CDATA[LOL]]></text></g><g id="e42ujfmk1xk621_to" transform="translate(-2049.359525,-802.083886)"><text id="e42ujfmk1xk621" dx="0" dy="0" font-family="Helvetica, Arial, sans-serif" font-size="24" transform="scale(2.341530,2.341530) translate(1557.734375,611.250000)" fill="rgb(0,0,0)" stroke="rgb(0,0,0)" stroke-width="0"><![CDATA[ROFL]]></text></g><g id="e42ujfmk1xk622_to" transform="translate(-1112.055163,-730.923370)"><text id="e42ujfmk1xk622" dx="0" dy="0" font-family="Helvetica, Arial, sans-serif" font-size="24" transform="scale(2.039720,2.039720) translate(1079.203125,698.703125)" fill="rgb(0,0,0)" stroke="rgb(0,0,0)" stroke-width="0"><![CDATA[TTYL]]></text></g><g id="e42ujfmk1xk623_to" transform="translate(-45.768000,-462.763000)"><text id="e42ujfmk1xk623" dx="0" dy="0" font-family="Helvetica, Arial, sans-serif" font-size="24" transform="scale(1.598030,1.598030) translate(76.531250,800.375000)" fill="rgb(0,0,0)" stroke="rgb(0,0,0)" stroke-width="0"><![CDATA[GN]]></text></g><g id="e42ujfmk1xk624_to" transform="translate(-829.074775,-216.735576)"><text id="e42ujfmk1xk624" dx="0" dy="0" font-family="Helvetica, Arial, sans-serif" font-size="24" transform="scale(1.737880,1.737880) translate(1110.125000,301.921875)" fill="rgb(0,0,0)" stroke="rgb(0,0,0)" stroke-width="0"><![CDATA[SD]]></text></g><g id="e42ujfmk1xk625_to" transform="translate(-605.082353,-164.008384)"><text id="e42ujfmk1xk625" dx="0" dy="0" font-family="Helvetica, Arial, sans-serif" font-size="24" transform="scale(1.469880,1.469880) translate(1239.984375,368.546875)" fill="rgb(0,0,0)" stroke="rgb(0,0,0)" stroke-width="0"><![CDATA[GN]]></text></g><g id="e42ujfmk1xk626_to" transform="translate(-699.009095,-38.767014)"><text id="e42ujfmk1xk626" dx="0" dy="0" font-family="Helvetica, Arial, sans-serif" font-size="24" transform="scale(1.403900,1.403900) translate(1746.140625,111.843750)" fill="rgb(0,0,0)" stroke="rgb(0,0,0)" stroke-width="0"><![CDATA[NP]]></text></g><text id="e42ujfmk1xk627" dx="0" dy="0" font-family="Helvetica, Arial, sans-serif" font-size="24" transform="matrix(1 0 0.15838444032454 1 641.03412226282137 176.15335278500001)" fill="rgb(0,0,0)" stroke="rgb(0,0,0)" stroke-width="0"><![CDATA[YKWIM]]></text><g id="e42ujfmk1xk628_to" transform="translate(-303.688775,-299.462576)"><text id="e42ujfmk1xk628" dx="0" dy="0" font-family="Helvetica, Arial, sans-serif" font-size="24" transform="scale(1.275650,1.275650) translate(1127.812500,1067.812500)" fill="rgb(0,0,0)" stroke="rgb(0,0,0)" stroke-width="0"><![CDATA[AITE]]></text></g><g id="e42ujfmk1xk629_ts" transform="translate(-653.545649,-769.413092) scale(1.960000,1.980000)"><text id="e42ujfmk1xk629" dx="0" dy="0" font-family="Helvetica, Arial, sans-serif" font-size="24" transform="translate(655.093750,814.312500)" fill="rgb(0,0,0)" stroke="rgb(0,0,0)" stroke-width="0"><![CDATA[BB]]></text></g><g id="e42ujfmk1xk630_to" transform="translate(-130.568000,-235.170000)"><text id="e42ujfmk1xk630" dx="0" dy="0" font-family="Helvetica, Arial, sans-serif" font-size="24" transform="scale(1.370620,1.370620) translate(352.296875,661.203125)" fill="rgb(0,0,0)" stroke="rgb(0,0,0)" stroke-width="0"><![CDATA[GG]]></text></g><g id="e42ujfmk1xk631_to" transform="translate(-368.934910,-504.189008)"><text id="e42ujfmk1xk631" dx="0" dy="0" font-family="Helvetica, Arial, sans-serif" font-size="24" transform="scale(1.541890,1.541890) translate(721.890625,915.593750)" fill="rgb(0,0,0)" stroke="rgb(0,0,0)" stroke-width="0"><![CDATA[JK]]></text></g><g id="e42ujfmk1xk632_to" transform="translate(1268.698787,1100.923737)"><text id="e42ujfmk1xk632" dx="0" dy="0" font-family="Helvetica, Arial, sans-serif" font-size="24" transform="translate(-19.335938,13.507813)" fill="rgb(0,0,0)" stroke="rgb(0,0,0)" stroke-width="0"><![CDATA[GM]]></text></g></g></svg>