<svg width="1980" height="1280" xmlns="http://www.w3.org/2000/svg">
 <style>
    path{
        fill:#eee;
    }
    .anim1{
        animation: animate 2s ease infinite alternate;
        transform-origin:bottom;
        stroke:#555;
    }
    @keyframes animate{
        from{
            transform:translateY(0%) scale(1);
        }
        to{
            transform:translateY(-4%) scale(1.02);
        }
    }
    .anim2{
        animation: animate2 2s ease infinite alternate;
        transform-origin:bottom;
        stroke:#555;
    }
    @keyframes animate2{
        from{
            transform:translateY(0%) scale(1);
        }
        to{
            transform:translateY(-5%) scale(1.02);
        }
    }
 </style>
  <path class="anim2" stroke="#000" id="svg_87" d="m635.467,488.11134l0,0c0,-8.85198 11.75968,-16.02793 26.26599,-16.02793l11.93909,0l0,0l57.30762,0l107.45176,0c6.96619,0 13.64704,1.68865 18.57288,4.69447c4.92581,3.00582 7.69312,7.08259 7.69312,11.33346l0,40.06983l0,0l0,24.04189l0,0c0,8.85199 -11.75968,16.02793 -26.26599,16.02793l-107.45176,0l-74.86534,40.75531l17.55771,-40.75531l-11.93909,0c-14.5063,0 -26.26599,-7.17594 -26.26599,-16.02793l0,0l0,-24.04189l0,0l-0.00001,-40.06983z" fill-opacity="null" stroke-opacity="null" stroke-width="1.5" fill="#fff" />
  <path class="anim1" stroke="#000" id="svg_90" d="m1793.75133,565.98178l0,0c0,-14.22285 -15.46912,-25.75275 -34.55125,-25.75275l-15.70512,0l0,0l-75.38455,0l-141.346,0c-9.16358,0 -17.95182,2.71322 -24.43145,7.5428c-6.47959,4.82958 -10.11981,11.3799 -10.11981,18.20995l0,64.38188l0,0l0,38.62912l0,0c0,14.22286 15.46911,25.75275 34.55126,25.75275l141.346,0l98.48062,65.48326l-23.09606,-65.48326l15.70512,0c19.08212,0 34.55125,-11.52989 34.55125,-25.75275l0,0l0,-38.62912l0,0l0.00001,-64.38188z" fill-opacity="null" stroke-opacity="null" stroke-width="1.5" fill="#fff"/>
  <path class="anim1" stroke="#000" id="svg_91" d="m129.54039,736.91114c53.95422,0 97.69217,33.06316 97.69217,73.84736c0,13.93714 -5.17074,26.95711 -14.06815,38.07471l14.06815,31.08608l-39.16738,-10.13577c-16.3215,9.2636 -36.544,14.81981 -58.5248,14.81981c-53.95428,0 -97.6922,-33.0632 -97.6922,-73.84483c0,-40.78419 43.73792,-73.84736 97.6922,-73.84736l0,0.00001z" fill-opacity="null" stroke-opacity="null" stroke-width="1.5" fill="#fff"/>
  <path class="anim2" stroke="#000" id="svg_93" d="m1141.54682,620.17257c54.37906,0 98.46142,33.40756 98.46142,74.61658c0,14.08232 -5.21145,27.23791 -14.17892,38.47131l14.17892,31.40988l-39.47579,-10.24135c-16.45002,9.3601 -36.83175,14.97418 -58.98563,14.97418c-54.37912,0 -98.46145,-33.40759 -98.46145,-74.61402c0,-41.20901 44.08232,-74.61658 98.46145,-74.61658l0,0.00001z" fill-opacity="null" stroke-opacity="null" stroke-width="1.5" fill="#fff"/>
  <path class="anim1" id="svg_94" d="m472.00558,673.53144l-23.55478,0.96226l-6.30191,23.44504l-20.83828,-5.66814l-30.22047,17.99018l-11.50581,-10.49894l-96.90992,44.89812l53.84533,-50.07096l-44.72561,-6.50948l13.99541,-9.6851l-30.70685,-17.77582l22.06768,-4.29883l-6.93889,-23.39845l23.1336,2.45228l19.03212,-21.59225l16.85478,8.42481l38.96056,-12.93066l5.22468,11.72252l46.51931,-0.16368l-8.06422,11.29842l39.30849,12.65527l-18.79277,7.28714l19.61753,21.45626z" fill-opacity="null" stroke-opacity="null" stroke-width="1.5" stroke="#000" fill="#fff"/>
  <path class="anim1" stroke="#000" id="svg_95" d="m812.68988,179.41728l-36.06825,1.23563l-9.64981,30.10557l-31.90862,-7.27841l-46.2751,23.10103l-17.61827,-13.48159l-148.39332,57.65327l82.45067,-64.29567l-68.48609,-8.35876l21.43048,-12.43654l-47.01987,-22.82577l33.79114,-5.52009l-10.62517,-30.04574l35.42333,3.14895l29.14294,-27.72641l25.80889,10.81822l59.65836,-16.60414l8.00029,15.05278l71.2327,-0.21018l-12.34834,14.5082l60.19113,16.25052l-28.77644,9.35735l30.03935,27.55179z" fill-opacity="null" stroke-opacity="null" stroke-width="1.5" fill="#fff"/>
  
  <path class="anim1" stroke="#000" transform="rotate(6.181267738342285 307.56576538085835,331.29843139648455) " id="svg_97" d="m307.56587,234.52318c-69.72382,0 -126.24528,43.32296 -126.24528,96.77183c0,18.26149 6.68208,35.32776 18.17918,49.89759l-18.17918,40.74243l50.61511,-13.27609c21.09189,12.12978 47.22502,19.41471 75.63016,19.41471c69.72399,0 126.24533,-43.33003 126.24533,-96.77864s-56.52134,-96.77183 -126.24533,-96.77183zm8.85609,151.49321l-17.7569,0l0,-17.41059l17.7569,0l0,17.41059zm0,-36.00278l0,5.75903l-17.7569,0l0,-7.08806c0,-21.39073 23.81641,-24.77999 23.81641,-39.96873c0,-6.93349 -6.05952,-12.24951 -14.00397,-12.24951c-8.22488,0 -15.447,6.19514 -15.447,6.19514l-10.10136,-12.84017c0,0 9.95686,-10.62501 27.13419,-10.62501c16.32239,0 31.47181,10.32968 31.47181,27.73344c0.00865,24.35824 -25.1132,27.15683 -25.1132,43.08387l0.00001,0z" fill-opacity="null" stroke-opacity="null" stroke-width="1.5" fill="#fff"/>
  <path class="anim2" id="svg_98" d="m1719.84146,986.26696c-65.8497,0 -119.23062,37.87937 -119.23062,84.61232c0,15.96691 6.3108,30.88878 17.16908,43.62789l-17.16908,35.62309l47.80275,-11.60793c19.91994,10.60566 44.60103,16.97522 71.42787,16.97522c65.84986,0 119.23067,-37.88555 119.23067,-84.61827s-53.38081,-84.61232 -119.23067,-84.61232zm8.36402,132.45789l-16.77026,0l0,-15.22293l16.77026,0l0,15.22293zm0,-31.47898l0,5.0354l-16.77026,0l0,-6.19744c0,-18.70295 22.49308,-21.66635 22.49308,-34.9466c0,-6.06229 -5.72284,-10.71034 -13.22586,-10.71034c-7.76787,0 -14.58871,5.41671 -14.58871,5.41671l-9.54009,-11.22679c0,0 9.40362,-9.28997 25.62652,-9.28997c15.41546,0 29.72312,9.03174 29.72312,24.24869c0.00817,21.29759 -23.71782,23.74453 -23.71782,37.67033l0.00001,0z" fill-opacity="null" stroke-opacity="null" stroke-width="1.5" stroke="#000" fill="#fff"/>
  <path class="anim1" id="svg_99" d="m359.09314,1055.66665c-69.6729,0 -126.15295,35.47449 -126.15295,79.23371c0,14.94498 6.67718,28.92316 18.16674,40.85148l-18.16674,33.35037l50.57798,-10.86325c21.0783,9.93071 47.19043,15.88911 75.57497,15.88911c69.67268,0 126.15448,-35.4747 126.15448,-79.22771s-56.4818,-79.23371 -126.15448,-79.23371zm7.82166,124.02901l-17.7421,0l0,-14.25476l17.7421,0l0,14.25476zm-0.86454,-24.7554l-16.01299,0l-1.58476,-60.99561l19.03984,0l-1.44211,60.99561l0.00001,0z" fill-opacity="null" stroke-opacity="null" stroke-width="1.5" stroke="#000" fill="#fff"/>
  <path class="anim1" stroke="#000" id="svg_100" d="m704.94292,749.36305c-91.33211,0 -165.38449,37.16937 -165.38449,83.0233c0,26.22758 24.30952,49.59611 62.15797,64.8054c-5.3853,13.48415 -16.13256,28.4189 -36.90422,41.62808c0,0 48.48551,-2.42403 82.73158,-28.65518c1.97154,0.36525 4.01227,0.64016 6.00247,0.97742c-1.87037,-4.21547 -2.97149,-8.5977 -2.97149,-13.15729c0,-30.93675 45.60183,-55.16098 103.84396,-55.16098c41.83308,0 77.03305,12.54507 93.60301,31.05502c14.10588,-12.2183 22.30562,-26.37025 22.30562,-41.50301c0,-45.84339 -74.05237,-83.01276 -165.38441,-83.01276l-0.00001,0zm141.23154,148.6288c0,-25.43473 -41.07312,-46.06959 -91.7696,-46.06959c-50.66883,0 -91.7651,20.63486 -91.7651,46.06959c0,25.44837 41.09627,46.07295 91.7651,46.07295c11.22172,0 21.90936,-1.06085 31.84604,-2.91099c18.99788,14.56231 45.90079,15.90137 45.90079,15.90137c-11.52102,-7.33175 -17.47289,-15.61645 -20.46746,-23.10454c20.98819,-8.43055 34.49023,-21.39665 34.49023,-35.95879z" fill-opacity="null" stroke-opacity="null" stroke-width="1.5" fill="#fff"/>
  <path class="anim2" stroke="#000" id="svg_101" d="m1194.08859,235.11743c-76.88888,0 -139.23065,33.31476 -139.23065,74.41346c0,23.50768 20.46522,44.4528 52.32834,58.08483c-4.53367,12.0858 -13.58137,25.47175 -31.06821,37.31108c0,0 40.81803,-2.17265 69.64844,-25.68352c1.65976,0.32737 3.37777,0.57377 5.05324,0.87606c-1.57459,-3.77831 -2.50158,-7.70608 -2.50158,-11.79283c0,-27.72849 38.39038,-49.44058 87.42211,-49.44058c35.21761,0 64.85107,11.2441 78.80067,27.83449c11.87518,-10.95121 18.77822,-23.63555 18.77822,-37.19899c0,-41.08926 -62.34175,-74.40402 -139.23058,-74.40402l-0.00001,0zm118.89724,133.21542c0,-22.79705 -34.57783,-41.29199 -77.25719,-41.29199c-42.65608,0 -77.2534,18.49495 -77.2534,41.29199c0,22.80928 34.59732,41.29501 77.2534,41.29501c9.44712,0 18.44462,-0.95084 26.80992,-2.6091c15.99356,13.05215 38.64205,14.25233 38.64205,14.25233c-9.69909,-6.57142 -14.70974,-13.99697 -17.23074,-20.70851c17.66913,-7.55627 29.03595,-19.17773 29.03595,-32.22973z" fill-opacity="null" stroke-opacity="null" stroke-width="1.5" fill="#fff"/>
  <path class="anim1" stroke="#000" id="svg_102" d="m1244.00375,991.09372c-90.0577,0 -163.07678,32.7641 -163.07678,73.18348c0,23.11912 23.97032,43.71804 61.29065,57.12475c-5.31016,11.88603 -15.90746,25.05073 -36.38928,36.69437c0,0 47.80897,-2.13674 81.57718,-25.259c1.94403,0.32196 3.95629,0.56429 5.91871,0.86158c-1.84427,-3.71586 -2.93002,-7.57871 -2.93002,-11.5979c0,-27.27016 44.96552,-48.62337 102.39496,-48.62337c41.24936,0 75.95816,11.05824 92.29692,27.37442c13.90906,-10.7702 21.99438,-23.24488 21.99438,-36.58412c0,-40.41009 -73.01907,-73.17419 -163.0767,-73.17419l-0.00001,0zm139.26085,131.01351c0,-22.42024 -40.5,-40.60948 -90.48908,-40.60948c-49.96181,0 -90.48465,18.18924 -90.48465,40.60948c0,22.43226 40.52283,40.61245 90.48465,40.61245c11.06513,0 21.60364,-0.93512 31.40168,-2.56598c18.73279,12.83641 45.26031,14.01676 45.26031,14.01676c-11.36026,-6.4628 -17.22909,-13.76561 -20.18186,-20.36622c20.69533,-7.43137 34.00896,-18.86075 34.00896,-31.697z" fill-opacity="null" stroke-opacity="null" stroke-width="1.5" fill="#fff"/>
  <text style="font-size:50;" class="anim1" stroke="#000" transform="matrix(2.060353233280996,0,0,2.060353233280996,-729.6331950365518,-534.6056176003566) " xml:space="preserve" text-anchor="start" font-family="Helvetica, Arial, sans-serif" font-size="24" id="svg_105" y="535" x="695" fill-opacity="null" stroke-opacity="null" stroke-width="0" fill="#000000">LOL</text>
  <text style="font-size:50;" class="anim2" stroke="#000" transform="matrix(2.3415301930241106,0,0,2.3415301930241106,-2041.6386669869798,-797.8700703046864) " xml:space="preserve" text-anchor="start" font-family="Helvetica, Arial, sans-serif" font-size="24" id="svg_106" y="630" x="1565" fill-opacity="null" stroke-opacity="null" stroke-width="0" fill="#000000">ROFL</text>
  <text style="font-size:50;" class="anim1" stroke="#000" transform="matrix(2.039719581604004,0,0,2.039719581604004,-1121.2888319045305,-699.7312784194946) " xml:space="preserve" text-anchor="start" font-family="Helvetica, Arial, sans-serif" font-size="24" id="svg_107" y="710" x="1079.21572" fill-opacity="null" stroke-opacity="null" stroke-width="0" fill="#000000">TTYL</text>
  <text style="font-size:50;" class="anim1" stroke="#000" transform="matrix(1.5980304479599,0,0,1.5980304479599,-45.76801772043109,-462.76343601197004) " xml:space="preserve" text-anchor="start" font-family="Helvetica, Arial, sans-serif" font-size="24" id="svg_108" y="810" x="76.53222" fill-opacity="null" stroke-opacity="null" stroke-width="0" fill="#000000">GN</text>
  <text style="font-size:50;" class="anim1" stroke="#000" transform="matrix(1.737884283065796,0,0,1.737884283065796,-840.0466679446399,-203.71370933577418) " xml:space="preserve" text-anchor="start" font-family="Helvetica, Arial, sans-serif" font-size="24" id="svg_109" y="296.73528" x="1110.13345" fill-opacity="null" stroke-opacity="null" stroke-width="0" fill="#000000">SD</text>
  <text style="font-size:50;" class="anim1" stroke="#000" transform="matrix(1.4698810577392578,0,0,1.4698810577392578,-599.568229675293,-160.8094501197338) " xml:space="preserve" text-anchor="start" font-family="Helvetica, Arial, sans-serif" font-size="24" id="svg_110" y="380" x="1210" fill-opacity="null" stroke-opacity="null" stroke-width="0" fill="#000000">GN</text>
  
  <text style="font-size:50;" class="anim1" xml:space="preserve" text-anchor="start" font-family="Helvetica, Arial, sans-serif" font-size="24" id="svg_112" y="177" x="573.84661" fill-opacity="null" stroke-opacity="null" stroke-width="0" stroke="#000" fill="#000000">YKWIM</text>
  <text style="font-size:50;" class="anim1" stroke="#000" transform="matrix(1.2756478786468506,0,0,1.2756478786468506,-314.66066747158766,-286.44121589511633) " xml:space="preserve" text-anchor="start" font-family="Helvetica, Arial, sans-serif" font-size="24" id="svg_113" y="1063.1087" x="1128.60452" fill-opacity="null" stroke-opacity="null" stroke-width="0" fill="#000000">AITE</text>
  <text style="font-size:50;" class="anim1" stroke="#000" transform="matrix(1.960599422454834,0,0,1.960599422454834,-642.8511447459459,-754.355724580586) " xml:space="preserve" text-anchor="start" font-family="Helvetica, Arial, sans-serif" font-size="24" id="svg_115" y="809.20484" x="655.10673" fill-opacity="null" stroke-opacity="null" stroke-width="0" fill="#000000">BB</text>
  <text style="font-size:50;" class="anim1" stroke="#000" transform="matrix(1.3706202507019043,0,0,1.3706202507019043,-130.56835613399744,-235.1701309531927) " xml:space="preserve" text-anchor="start" font-family="Helvetica, Arial, sans-serif" font-size="24" id="svg_117" y="673" x="340" fill-opacity="null" stroke-opacity="null" stroke-width="0" fill="#000000">GG</text>
  <text style="font-size:50;" class="anim1" stroke="#000" transform="matrix(1.541892520452123,0,0,1.541892520452123,-395.58197218555074,-482.788143559841) " xml:space="preserve" text-anchor="start" font-family="Helvetica, Arial, sans-serif" font-size="24" id="svg_118" y="910.39526" x="721.90063" fill-opacity="null" stroke-opacity="null" stroke-width="0" fill="#000000">JK</text>
  <text style="font-size:50;" class="anim1" stroke="#000" xml:space="preserve" text-anchor="start" font-family="Helvetica, Arial, sans-serif" font-size="24" id="svg_119" y="1140" x="1238.40077" fill-opacity="null" stroke-opacity="null" stroke-width="0" fill="#000000">GM</text>
<path class="anim2" fill="#fff" stroke-width="1.5" stroke-opacity="null" fill-opacity="null" d="m1476.78392,225.57352l34.70874,1.22956l9.28608,29.95787l30.7059,-7.2427l44.53086,22.98769l16.95419,-13.41545l142.79996,57.37043l-79.34287,-63.98024l65.90466,-8.31775l-20.6227,-12.37553l45.24756,-22.71379l-32.51746,-5.49301l10.22468,-29.89833l-34.08812,3.1335l-28.04446,-27.59039l-24.83608,10.76515l-57.40967,-16.52268l-7.69874,14.97893l-68.54774,-0.20915l11.8829,14.43702l-57.92236,16.17079l27.69177,9.31145l-28.90708,27.41663l-0.00002,0z"
 id="svg_96" transform="rotate(-12.221004486083984 1621.8699951171873,229.964385986329) " stroke="#000"/>

 
<text style="font-size:50;" class="anim1" fill="#000000" stroke-width="0" stroke-opacity="null" fill-opacity="null" x="1590" y="220" id="svg_111" font-size="24" font-family="Helvetica, Arial, sans-serif" text-anchor="start" xml:space="preserve" transform="matrix(1.4038983583450315,0,0,1.4038983583450315,-692.95565434359,-45.22679809480905)
 " stroke="#000">NP</text>

<path class="anim1" stroke="#555" style="vector-effect: non-scaling-stroke;" id="svg_2" d="m746.13072,1237.27046l44.3651,-79.0814l0,0c-47.00126,-23.85535 -60.41301,-68.79372 -30.98484,-103.81928c29.42761,-35.02536 92.06547,-48.67466 144.70716,-31.53317c52.64167,17.14139 78.06087,59.46334 58.72312,97.77465c-19.33672,38.31129 -77.10094,60.0736 -133.44975,50.27594l-83.36079,66.38326z" stroke-width="2" fill="#fff"/>
  <text style="font-size:60;" class="anim1" stroke="#000" transform="matrix(4.534249782562256,0,0,2.5985124111175533,-3319.085335195065,-1362.445637643337) " xml:space="preserve" text-anchor="start" font-family="Helvetica, Arial, sans-serif" font-size="24" id="svg_3" y="1110" x="780" fill-opacity="null" stroke-opacity="null" stroke-width="0" fill="black">?</text>
  <text style="font-size:60;" class="anim1" stroke="#000" transform="matrix(6.656755141197776,0,0,4.037360508894554,-5190.465385076419,-2803.309977970732) " xml:space="preserve" text-anchor="start" font-family="Helvetica, Arial, sans-serif" font-size="24" id="svg_4" y="1080" x="850" fill-opacity="null" stroke-opacity="null" stroke-width="0" fill="black">*</text>
  <text style="font-size:60;" class="anim1" stroke="#000" transform="matrix(2.6638472080230713,0,0,2.3320937156677246,-1663.821210410446,-1144.2476877942681) " xml:space="preserve" text-anchor="start" font-family="Helvetica, Arial, sans-serif" font-size="24" id="svg_5" y="1100" x="900" fill-opacity="null" stroke-opacity="null" stroke-width="0" fill="black">#</text>
  <text style="font-size:60;" class="anim1" stroke="#000" transform="matrix(4.096597638484923,0,0,2.0172556434750533,-3281.790762094194,-852.8007444087402) " xml:space="preserve" text-anchor="start" font-family="Helvetica, Arial, sans-serif" font-size="24" id="svg_6" y="1150" x="850" fill-opacity="null" stroke-opacity="null" stroke-width="0" fill="black">!</text>


</svg>